<?xml version="1.0" encoding="UTF-8" standalone="no"?>
<svg
   xmlns:dc="http://purl.org/dc/elements/1.1/"
   xmlns:cc="http://creativecommons.org/ns#"
   xmlns:rdf="http://www.w3.org/1999/02/22-rdf-syntax-ns#"
   xmlns:svg="http://www.w3.org/2000/svg"
   xmlns="http://www.w3.org/2000/svg"
   xmlns:sodipodi="http://sodipodi.sourceforge.net/DTD/sodipodi-0.dtd"
   xmlns:inkscape="http://www.inkscape.org/namespaces/inkscape"
   version="1.1"
   id="svg2"
   viewBox="0 0 524.40945 372.04724"
   height="105mm"
   width="148mm"
   sodipodi:docname="logo.svg"
   inkscape:version="0.92.1 r15371">
  <metadata
     id="metadata21">
    <rdf:RDF>
      <cc:Work
         rdf:about="">
        <dc:format>image/svg+xml</dc:format>
        <dc:type
           rdf:resource="http://purl.org/dc/dcmitype/StillImage" />
      </cc:Work>
    </rdf:RDF>
  </metadata>
  <sodipodi:namedview
     pagecolor="#ffffff"
     bordercolor="#666666"
     borderopacity="1"
     objecttolerance="10"
     gridtolerance="10"
     guidetolerance="10"
     inkscape:pageopacity="0"
     inkscape:pageshadow="2"
     inkscape:window-width="1920"
     inkscape:window-height="1017"
     id="namedview19"
     showgrid="false"
     inkscape:zoom="0.71801597"
     inkscape:cx="185.65258"
     inkscape:cy="168.57523"
     inkscape:window-x="-8"
     inkscape:window-y="-8"
     inkscape:window-maximized="1"
     inkscape:current-layer="layer1" />
  <title
     id="title4244">Deplink Logo</title>
  <defs
     id="defs4" />
  <g
     style="display:inline"
     transform="translate(0,-680.31496)"
     id="layer1">
    <path
       inkscape:connector-curvature="0"
       id="path3695"
       style="font-style:normal;font-variant:normal;font-weight:normal;font-stretch:normal;font-size:medium;line-height:125%;font-family:'Roboto Medium';-inkscape-font-specification:'Roboto Medium, Normal';text-align:start;letter-spacing:0px;word-spacing:0px;writing-mode:lr-tb;text-anchor:start;opacity:1;fill:#6184d8;fill-opacity:1;stroke:none;stroke-width:1px;stroke-linecap:butt;stroke-linejoin:miter;stroke-opacity:1"
       d="m 154.82044,945.98601 q -3.78,0 -7,-1.47 -3.22,-1.47 -5.53,-4.06 -2.31,-2.59 -3.64,-6.02 -1.26,-3.5 -1.26,-7.49 0,-3.99 1.19,-7.42 1.26,-3.43 3.43,-6.02 2.17,-2.59 5.18,-4.06 3.01,-1.47 6.58,-1.47 4.06,0 7.28,1.96 3.29,1.96 5.11,5.11 v -20.86 h 9.38 v 40.32 q 0,1.47 0.49,2.1 0.49,0.63 1.68,0.7 v 7.98 q -2.45,0.49 -3.99,0.49 -2.52,0 -4.13,-1.26 -1.61,-1.26 -1.82,-3.29 l -0.21,-2.31 q -2.03,3.5 -5.53,5.32 -3.43,1.75 -7.21,1.75 z m 2.45,-7.98 q 1.33,0 2.73,-0.42 1.4,-0.49 2.59,-1.33 1.19,-0.84 2.1,-1.96 0.98,-1.12 1.47,-2.45 v -8.75 q -0.56,-1.54 -1.61,-2.8 -0.98,-1.33 -2.31,-2.24 -1.26,-0.98 -2.73,-1.54 -1.4,-0.56 -2.8,-0.56 -2.1,0 -3.92,0.91 -1.75,0.91 -3.01,2.52 -1.26,1.54 -1.96,3.57 -0.7,2.03 -0.7,4.2 0,2.31 0.77,4.27 0.77,1.96 2.1,3.43 1.33,1.47 3.15,2.31 1.89,0.84 4.13,0.84 z" />
    <path
       inkscape:connector-curvature="0"
       id="path3697"
       style="font-style:normal;font-variant:normal;font-weight:normal;font-stretch:normal;font-size:medium;line-height:125%;font-family:'Roboto Medium';-inkscape-font-specification:'Roboto Medium, Normal';text-align:start;letter-spacing:0px;word-spacing:0px;writing-mode:lr-tb;text-anchor:start;opacity:1;fill:#6184d8;fill-opacity:1;stroke:none;stroke-width:1px;stroke-linecap:butt;stroke-linejoin:miter;stroke-opacity:1"
       d="m 201.75763,945.98601 q -4.41,0 -7.98,-1.47 -3.57,-1.54 -6.09,-4.13 -2.52,-2.59 -3.92,-6.02 -1.33,-3.43 -1.33,-7.21 0,-3.92 1.33,-7.35 1.33,-3.5 3.85,-6.09 2.52,-2.66 6.09,-4.2 3.64,-1.54 8.12,-1.54 4.48,0 7.98,1.54 3.57,1.54 6.02,4.13 2.52,2.59 3.78,6.02 1.33,3.43 1.33,7.14 0,0.91 -0.07,1.75 0,0.84 -0.14,1.4 h -28.35 q 0.21,2.17 1.05,3.85 0.84,1.68 2.17,2.87 1.33,1.19 3.01,1.82 1.68,0.63 3.5,0.63 2.8,0 5.25,-1.33 2.52,-1.4 3.43,-3.64 l 8.05,2.24 q -2.03,4.2 -6.51,6.93 -4.41,2.66 -10.57,2.66 z m 9.52,-22.12 q -0.35,-4.13 -3.08,-6.58 -2.66,-2.52 -6.51,-2.52 -1.89,0 -3.57,0.7 -1.61,0.63 -2.87,1.82 -1.26,1.19 -2.1,2.87 -0.77,1.68 -0.91,3.71 z" />
    <path
       inkscape:connector-curvature="0"
       id="path3699"
       style="font-style:normal;font-variant:normal;font-weight:normal;font-stretch:normal;font-size:medium;line-height:125%;font-family:'Roboto Medium';-inkscape-font-specification:'Roboto Medium, Normal';text-align:start;letter-spacing:0px;word-spacing:0px;writing-mode:lr-tb;text-anchor:start;opacity:1;fill:#6184d8;fill-opacity:1;stroke:none;stroke-width:1px;stroke-linecap:butt;stroke-linejoin:miter;stroke-opacity:1"
       d="m 248.70029,945.98601 q -4.34,0 -7.56,-1.89 -3.22,-1.96 -5.04,-5.25 v 21.35 h -9.38 v -51.59 h 8.19 v 6.3 q 2.03,-3.22 5.25,-5.04 3.22,-1.89 7.42,-1.89 3.71,0 6.86,1.54 3.15,1.47 5.39,4.06 2.31,2.52 3.57,6.02 1.33,3.43 1.33,7.28 0,3.99 -1.19,7.49 -1.19,3.5 -3.36,6.09 -2.1,2.59 -5.04,4.06 -2.94,1.47 -6.44,1.47 z m -3.15,-7.98 q 2.1,0 3.85,-0.91 1.82,-0.91 3.08,-2.45 1.26,-1.54 1.96,-3.57 0.7,-2.03 0.7,-4.2 0,-2.31 -0.77,-4.27 -0.77,-2.03 -2.17,-3.5 -1.33,-1.47 -3.22,-2.31 -1.82,-0.84 -3.99,-0.84 -1.33,0 -2.73,0.49 -1.4,0.42 -2.59,1.26 -1.19,0.84 -2.17,1.96 -0.91,1.12 -1.4,2.45 v 8.61 q 1.26,3.15 3.85,5.25 2.59,2.03 5.6,2.03 z" />
    <path
       inkscape:connector-curvature="0"
       id="path3701"
       style="font-style:normal;font-variant:normal;font-weight:bold;font-stretch:normal;font-size:70px;line-height:125%;font-family:Raleway;-inkscape-font-specification:'Raleway Bold';text-align:start;letter-spacing:0px;word-spacing:0px;writing-mode:lr-tb;text-anchor:start;fill:#4b4b6c;fill-opacity:1;stroke:none;stroke-width:1px;stroke-linecap:butt;stroke-linejoin:miter;stroke-opacity:1"
       d="m 271.08388,894.18601 h 9.38 v 39.34 q 0,2.03 0.98,3.15 0.98,1.12 2.8,1.12 0.84,0 1.82,-0.28 1.05,-0.28 1.96,-0.7 l 1.26,7.14 q -1.89,0.91 -4.41,1.4 -2.52,0.49 -4.55,0.49 -4.41,0 -6.86,-2.31 -2.38,-2.38 -2.38,-6.72 z" />
    <path
       inkscape:connector-curvature="0"
       id="path3703"
       style="font-style:normal;font-variant:normal;font-weight:bold;font-stretch:normal;font-size:70px;line-height:125%;font-family:Raleway;-inkscape-font-specification:'Raleway Bold';text-align:start;letter-spacing:0px;word-spacing:0px;writing-mode:lr-tb;text-anchor:start;fill:#4b4b6c;fill-opacity:1;stroke:none;stroke-width:1px;stroke-linecap:butt;stroke-linejoin:miter;stroke-opacity:1"
       d="m 293.30232,945.28601 v -36.68 h 9.38 v 36.68 z m 0,-41.79 v -9.31 h 9.38 v 9.31 z" />
    <path
       inkscape:connector-curvature="0"
       id="path3705"
       style="font-style:normal;font-variant:normal;font-weight:bold;font-stretch:normal;font-size:70px;line-height:125%;font-family:Raleway;-inkscape-font-specification:'Raleway Bold';text-align:start;letter-spacing:0px;word-spacing:0px;writing-mode:lr-tb;text-anchor:start;fill:#4b4b6c;fill-opacity:1;stroke:none;stroke-width:1px;stroke-linecap:butt;stroke-linejoin:miter;stroke-opacity:1"
       d="m 345.30247,945.28601 h -9.38 v -20.58 q 0,-4.41 -1.54,-6.44 -1.54,-2.03 -4.27,-2.03 -1.4,0 -2.87,0.56 -1.47,0.56 -2.8,1.61 -1.26,0.98 -2.31,2.38 -1.05,1.4 -1.54,3.08 v 21.42 h -9.38 v -36.68 h 8.47 v 6.79 q 2.03,-3.5 5.88,-5.46 3.85,-1.96 8.68,-1.96 3.43,0 5.6,1.26 2.17,1.26 3.36,3.29 1.19,2.03 1.61,4.62 0.49,2.59 0.49,5.25 z" />
    <path
       inkscape:connector-curvature="0"
       id="path3707"
       style="font-style:normal;font-variant:normal;font-weight:bold;font-stretch:normal;font-size:70px;line-height:125%;font-family:Raleway;-inkscape-font-specification:'Raleway Bold';text-align:start;letter-spacing:0px;word-spacing:0px;writing-mode:lr-tb;text-anchor:start;fill:#4b4b6c;fill-opacity:1;stroke:none;stroke-width:1px;stroke-linecap:butt;stroke-linejoin:miter;stroke-opacity:1"
       d="m 378.51857,945.28601 -10.64,-15.89 -5.04,4.97 v 10.92 h -9.38 v -51.1 h 9.38 v 31.01 l 14.7,-16.52 h 10.01 l -13.65,15.54 14.63,21.07 z" />
    <g
       aria-label="C/C++ Dependency Manager"
       style="font-style:normal;font-variant:normal;font-weight:bold;font-stretch:normal;font-size:31.25px;line-height:125%;font-family:Raleway;-inkscape-font-specification:'Raleway Bold';text-align:start;letter-spacing:0px;word-spacing:0px;writing-mode:lr-tb;text-anchor:start;fill:#b1b1b1;fill-opacity:1;stroke:none;stroke-width:1px;stroke-linecap:butt;stroke-linejoin:miter;stroke-opacity:1"
       id="text4155">
      <path
         d="m 48.378067,995.44153 q 0,-2.03125 0.71875,-4 0.75,-2 2.15625,-3.5625 1.40625,-1.5625 3.4375,-2.53125 2.03125,-0.96875 4.625,-0.96875 3.0625,0 5.28125,1.34375 2.25,1.34375 3.34375,3.5 l -3.3125,2.28125 q -0.4375,-0.9375 -1.0625,-1.5625 -0.625,-0.65625 -1.34375,-1.03125 -0.71875,-0.375 -1.5,-0.53125 -0.78125,-0.1875 -1.53125,-0.1875 -1.625,0 -2.84375,0.65625 -1.1875,0.65625 -2,1.71875 -0.78125,1.03125 -1.1875,2.375 -0.40625,1.3125 -0.40625,2.625 0,1.46875 0.46875,2.84375 0.46875,1.34375 1.3125,2.37502 0.875,1.0312 2.0625,1.6562 1.21875,0.625 2.65625,0.625 0.75,0 1.5625,-0.1875 0.8125,-0.1875 1.53125,-0.5937 0.75,-0.4063 1.375,-1.0313 0.625,-0.6562 1,-1.56247 l 3.53125,2.03127 q -0.53125,1.25 -1.53125,2.2187 -0.96875,0.9375 -2.21875,1.5938 -1.21875,0.6562 -2.625,1 -1.40625,0.3437 -2.75,0.3437 -2.375,0 -4.34375,-1 -1.96875,-1 -3.40625,-2.5937 -1.40625,-1.625 -2.21875,-3.65627 -0.78125,-2.0625 -0.78125,-4.1875 z"
         style=""
         id="path3710" />
      <path
         d="m 89.801407,984.50403 -15.5,22.18747 h -4.625 l 15.46875,-22.18747 z"
         style=""
         id="path3712" />
      <path
         d="m 90.919571,995.44153 q 0,-2.03125 0.71875,-4 0.75,-2 2.15625,-3.5625 1.40625,-1.5625 3.4375,-2.53125 2.03125,-0.96875 4.624999,-0.96875 3.0625,0 5.28125,1.34375 2.25,1.34375 3.34375,3.5 l -3.3125,2.28125 q -0.4375,-0.9375 -1.0625,-1.5625 -0.625,-0.65625 -1.34375,-1.03125 -0.71875,-0.375 -1.5,-0.53125 -0.78125,-0.1875 -1.53125,-0.1875 -1.625,0 -2.843749,0.65625 -1.1875,0.65625 -2,1.71875 -0.78125,1.03125 -1.1875,2.375 -0.40625,1.3125 -0.40625,2.625 0,1.46875 0.46875,2.84375 0.46875,1.34375 1.3125,2.37502 0.875,1.0312 2.0625,1.6562 1.218749,0.625 2.656249,0.625 0.75,0 1.5625,-0.1875 0.8125,-0.1875 1.53125,-0.5937 0.75,-0.4063 1.375,-1.0313 0.625,-0.6562 1,-1.56247 l 3.53125,2.03127 q -0.53125,1.25 -1.53125,2.2187 -0.96875,0.9375 -2.21875,1.5938 -1.21875,0.6562 -2.625,1 -1.40625,0.3437 -2.75,0.3437 -2.374999,0 -4.343749,-1 -1.96875,-1 -3.40625,-2.5937 -1.40625,-1.625 -2.21875,-3.65627 -0.78125,-2.0625 -0.78125,-4.1875 z"
         style=""
         id="path3714" />
      <path
         d="m 123.06166,993.91028 v 3.375 h -3.21875 v 3.53122 h -3.78125 v -3.53122 h -3.21875 v -3.375 h 3.21875 v -3.53125 h 3.78125 v 3.53125 z"
         style=""
         id="path3716" />
      <path
         d="m 136.24525,993.91028 v 3.375 h -3.21875 v 3.53122 h -3.78125 v -3.53122 h -3.21875 v -3.375 h 3.21875 v -3.53125 h 3.78125 v 3.53125 z"
         style=""
         id="path3718" />
      <path
         d="m 147.56117,1006.6915 v -22.18747 h 8.0625 q 2.71875,0 4.75,0.875 2.0625,0.875 3.4375,2.375 1.375,1.5 2.0625,3.53125 0.6875,2 0.6875,4.28125 0,2.53125 -0.78125,4.59377 -0.75,2.0312 -2.1875,3.5 -1.4375,1.4375 -3.46875,2.25 -2,0.7812 -4.5,0.7812 z m 14.65625,-11.12497 q 0,-1.59375 -0.4375,-2.9375 -0.4375,-1.34375 -1.28125,-2.3125 -0.84375,-0.96875 -2.09375,-1.5 -1.21875,-0.53125 -2.78125,-0.53125 h -3.75 v 14.62502 h 3.75 q 1.59375,0 2.8125,-0.5625 1.25,-0.5625 2.0625,-1.5313 0.84375,-0.99997 1.28125,-2.34372 0.4375,-1.34375 0.4375,-2.90625 z"
         style=""
         id="path3720" />
      <path
         d="m 177.14857,1007.004 q -1.96875,0 -3.5625,-0.6562 -1.59375,-0.6875 -2.71875,-1.8438 -1.125,-1.1562 -1.75,-2.6875 -0.59375,-1.5312 -0.59375,-3.21872 0,-1.75 0.59375,-3.28125 0.59375,-1.5625 1.71875,-2.71875 1.125,-1.1875 2.71875,-1.875 1.625,-0.6875 3.625,-0.6875 2,0 3.5625,0.6875 1.59375,0.6875 2.6875,1.84375 1.125,1.15625 1.6875,2.6875 0.59375,1.53125 0.59375,3.1875 0,0.40625 -0.0312,0.78125 0,0.375 -0.0625,0.625 h -12.65625 q 0.0937,0.96872 0.46875,1.71872 0.375,0.75 0.96875,1.2813 0.59375,0.5312 1.34375,0.8125 0.75,0.2812 1.5625,0.2812 1.25,0 2.34375,-0.5937 1.125,-0.625 1.53125,-1.625 l 3.59375,1 q -0.90625,1.875 -2.90625,3.0937 -1.96875,1.1875 -4.71875,1.1875 z m 4.25,-9.87497 q -0.15625,-1.84375 -1.375,-2.9375 -1.1875,-1.125 -2.90625,-1.125 -0.84375,0 -1.59375,0.3125 -0.71875,0.28125 -1.28125,0.8125 -0.5625,0.53125 -0.9375,1.28125 -0.34375,0.75 -0.40625,1.65625 z"
         style=""
         id="path3722" />
      <path
         d="m 198.10512,1007.004 q -1.9375,0 -3.375,-0.8437 -1.4375,-0.875 -2.25,-2.3438 v 9.5313 h -4.1875 v -23.03127 h 3.65625 v 2.8125 q 0.90625,-1.4375 2.34375,-2.25 1.4375,-0.84375 3.3125,-0.84375 1.65625,0 3.0625,0.6875 1.40625,0.65625 2.40625,1.8125 1.03125,1.125 1.59375,2.6875 0.59375,1.53125 0.59375,3.25 0,1.78122 -0.53125,3.34372 -0.53125,1.5625 -1.5,2.7188 -0.9375,1.1562 -2.25,1.8125 -1.3125,0.6562 -2.875,0.6562 z m -1.40625,-3.5625 q 0.9375,0 1.71875,-0.4062 0.8125,-0.4063 1.375,-1.0938 0.5625,-0.6875 0.875,-1.5937 0.3125,-0.90627 0.3125,-1.87502 0,-1.03125 -0.34375,-1.90625 -0.34375,-0.90625 -0.96875,-1.5625 -0.59375,-0.65625 -1.4375,-1.03125 -0.8125,-0.375 -1.78125,-0.375 -0.59375,0 -1.21875,0.21875 -0.625,0.1875 -1.15625,0.5625 -0.53125,0.375 -0.96875,0.875 -0.40625,0.5 -0.625,1.09375 v 3.84372 q 0.5625,1.4063 1.71875,2.3438 1.15625,0.9062 2.5,0.9062 z"
         style=""
         id="path3724" />
      <path
         d="m 215.72279,1007.004 q -1.96875,0 -3.5625,-0.6562 -1.59375,-0.6875 -2.71875,-1.8438 -1.125,-1.1562 -1.75,-2.6875 -0.59375,-1.5312 -0.59375,-3.21872 0,-1.75 0.59375,-3.28125 0.59375,-1.5625 1.71875,-2.71875 1.125,-1.1875 2.71875,-1.875 1.625,-0.6875 3.625,-0.6875 2,0 3.5625,0.6875 1.59375,0.6875 2.6875,1.84375 1.125,1.15625 1.6875,2.6875 0.59375,1.53125 0.59375,3.1875 0,0.40625 -0.0312,0.78125 0,0.375 -0.0625,0.625 h -12.65625 q 0.0937,0.96872 0.46875,1.71872 0.375,0.75 0.96875,1.2813 0.59375,0.5312 1.34375,0.8125 0.75,0.2812 1.5625,0.2812 1.25,0 2.34375,-0.5937 1.125,-0.625 1.53125,-1.625 l 3.59375,1 q -0.90625,1.875 -2.90625,3.0937 -1.96875,1.1875 -4.71875,1.1875 z m 4.25,-9.87497 q -0.15625,-1.84375 -1.375,-2.9375 -1.1875,-1.125 -2.90625,-1.125 -0.84375,0 -1.59375,0.3125 -0.71875,0.28125 -1.28125,0.8125 -0.5625,0.53125 -0.9375,1.28125 -0.34375,0.75 -0.40625,1.65625 z"
         style=""
         id="path3726" />
      <path
         d="m 242.08559,1006.6915 h -4.1875 v -9.18747 q 0,-1.96875 -0.6875,-2.875 -0.6875,-0.90625 -1.90625,-0.90625 -0.625,0 -1.28125,0.25 -0.65625,0.25 -1.25,0.71875 -0.5625,0.4375 -1.03125,1.0625 -0.46875,0.625 -0.6875,1.375 v 9.56247 h -4.1875 v -16.37497 h 3.78125 v 3.03125 q 0.90625,-1.5625 2.625,-2.4375 1.71875,-0.875 3.875,-0.875 1.53125,0 2.5,0.5625 0.96875,0.5625 1.5,1.46875 0.53125,0.90625 0.71875,2.0625 0.21875,1.15625 0.21875,2.34375 z"
         style=""
         id="path3728" />
      <path
         d="m 252.50795,1007.004 q -1.6875,0 -3.125,-0.6562 -1.4375,-0.6563 -2.46875,-1.8125 -1.03125,-1.1563 -1.625,-2.6875 -0.5625,-1.5625 -0.5625,-3.34377 0,-1.78125 0.53125,-3.3125 0.5625,-1.53125 1.53125,-2.6875 0.96875,-1.15625 2.3125,-1.8125 1.34375,-0.65625 2.9375,-0.65625 1.8125,0 3.25,0.875 1.46875,0.875 2.28125,2.28125 v -9.3125 h 4.1875 v 17.99997 q 0,0.6563 0.21875,0.9375 0.21875,0.2813 0.75,0.3125 v 3.5625 q -1.09375,0.2188 -1.78125,0.2188 -1.125,0 -1.84375,-0.5625 -0.71875,-0.5625 -0.8125,-1.4688 l -0.0937,-1.0312 q -0.90625,1.5625 -2.46875,2.375 -1.53125,0.7812 -3.21875,0.7812 z m 1.09375,-3.5625 q 0.59375,0 1.21875,-0.1875 0.625,-0.2187 1.15625,-0.5937 0.53125,-0.375 0.9375,-0.875 0.4375,-0.5 0.65625,-1.0938 v -3.90622 q -0.25,-0.6875 -0.71875,-1.25 -0.4375,-0.59375 -1.03125,-1 -0.5625,-0.4375 -1.21875,-0.6875 -0.625,-0.25 -1.25,-0.25 -0.9375,0 -1.75,0.40625 -0.78125,0.40625 -1.34375,1.125 -0.5625,0.6875 -0.875,1.59375 -0.3125,0.90625 -0.3125,1.875 0,1.03125 0.34375,1.90622 0.34375,0.875 0.9375,1.5313 0.59375,0.6562 1.40625,1.0312 0.84375,0.375 1.84375,0.375 z"
         style=""
         id="path3730" />
      <path
         d="m 273.46205,1007.004 q -1.96875,0 -3.5625,-0.6562 -1.59375,-0.6875 -2.71875,-1.8438 -1.125,-1.1562 -1.75,-2.6875 -0.59375,-1.5312 -0.59375,-3.21872 0,-1.75 0.59375,-3.28125 0.59375,-1.5625 1.71875,-2.71875 1.125,-1.1875 2.71875,-1.875 1.625,-0.6875 3.625,-0.6875 2,0 3.5625,0.6875 1.59375,0.6875 2.6875,1.84375 1.125,1.15625 1.6875,2.6875 0.59375,1.53125 0.59375,3.1875 0,0.40625 -0.0312,0.78125 0,0.375 -0.0625,0.625 h -12.65625 q 0.0937,0.96872 0.46875,1.71872 0.375,0.75 0.96875,1.2813 0.59375,0.5312 1.34375,0.8125 0.75,0.2812 1.5625,0.2812 1.25,0 2.34375,-0.5937 1.125,-0.625 1.53125,-1.625 l 3.59375,1 q -0.90625,1.875 -2.90625,3.0937 -1.96875,1.1875 -4.71875,1.1875 z m 4.25,-9.87497 q -0.15625,-1.84375 -1.375,-2.9375 -1.1875,-1.125 -2.90625,-1.125 -0.84375,0 -1.59375,0.3125 -0.71875,0.28125 -1.28125,0.8125 -0.5625,0.53125 -0.9375,1.28125 -0.34375,0.75 -0.40625,1.65625 z"
         style=""
         id="path3732" />
      <path
         d="m 299.82484,1006.6915 h -4.1875 v -9.18747 q 0,-1.96875 -0.6875,-2.875 -0.6875,-0.90625 -1.90625,-0.90625 -0.625,0 -1.28125,0.25 -0.65625,0.25 -1.25,0.71875 -0.5625,0.4375 -1.03125,1.0625 -0.46875,0.625 -0.6875,1.375 v 9.56247 h -4.1875 v -16.37497 h 3.78125 v 3.03125 q 0.90625,-1.5625 2.625,-2.4375 1.71875,-0.875 3.875,-0.875 1.53125,0 2.5,0.5625 0.96875,0.5625 1.5,1.46875 0.53125,0.90625 0.71875,2.0625 0.21875,1.15625 0.21875,2.34375 z"
         style=""
         id="path3734" />
      <path
         d="m 302.43471,998.50403 q 0,-1.71875 0.59375,-3.25 0.59375,-1.53125 1.71875,-2.6875 1.125,-1.15625 2.71875,-1.84375 1.59375,-0.6875 3.59375,-0.6875 2.6875,0 4.5625,1.15625 1.90625,1.15625 2.84375,3.03125 l -4.09375,1.25 q -0.53125,-0.90625 -1.40625,-1.375 -0.875,-0.5 -1.9375,-0.5 -0.90625,0 -1.6875,0.375 -0.78125,0.34375 -1.375,1 -0.5625,0.625 -0.90625,1.53125 -0.3125,0.90625 -0.3125,2 0,1.09375 0.34375,1.99997 0.34375,0.9063 0.90625,1.5625 0.59375,0.6563 1.375,1.0313 0.78125,0.3437 1.65625,0.3437 1.125,0 2.0625,-0.5625 0.96875,-0.5625 1.34375,-1.375 l 4.09375,1.25 q -0.84375,1.875 -2.78125,3.0625 -1.9375,1.1875 -4.65625,1.1875 -2,0 -3.59375,-0.6875 -1.59375,-0.6875 -2.71875,-1.8437 -1.125,-1.1875 -1.75,-2.7188 -0.59375,-1.5625 -0.59375,-3.24997 z"
         style=""
         id="path3736" />
      <path
         d="m 321.20473,1009.879 q 0.53125,0.1563 1.03125,0.2188 0.5,0.094 0.84375,0.094 0.40625,0 0.75,-0.1562 0.34375,-0.1563 0.625,-0.5625 0.28125,-0.375 0.5625,-1.0625 0.28125,-0.6875 0.59375,-1.7188 l -6.46875,-16.37497 h 4.3125 l 4.4375,12.74997 3.9375,-12.74997 h 3.9375 l -6.875,19.62497 q -0.59375,1.7188 -2.03125,2.8125 -1.4375,1.0938 -3.5625,1.0938 -0.5,0 -1.03125,-0.094 -0.5,-0.062 -1.0625,-0.25 z"
         style=""
         id="path3738" />
      <path
         d="m 363.22572,1006.6915 v -14.68747 l -5.71875,10.93747 h -2.34375 l -5.71875,-10.93747 v 14.68747 h -4.3125 v -22.18747 h 4.625 l 6.5625,12.625 6.625,-12.625 h 4.59375 v 22.18747 z"
         style=""
         id="path3740" />
      <path
         d="m 376.04994,1007.004 q -1.1875,0 -2.21875,-0.375 -1.03125,-0.4062 -1.78125,-1.0937 -0.75,-0.7188 -1.1875,-1.6563 -0.40625,-0.9375 -0.40625,-2.0625 0,-1.1562 0.5,-2.12497 0.53125,-1 1.4375,-1.6875 0.9375,-0.6875 2.21875,-1.0625 1.28125,-0.40625 2.8125,-0.40625 1.09375,0 2.125,0.1875 1.0625,0.1875 1.875,0.53125 v -0.9375 q 0,-1.625 -0.9375,-2.5 -0.90625,-0.875 -2.71875,-0.875 -1.3125,0 -2.5625,0.46875 -1.25,0.46875 -2.5625,1.375 l -1.28125,-2.65625 q 3.15625,-2.09375 6.8125,-2.09375 3.53125,0 5.46875,1.75 1.96875,1.71875 1.96875,5 v 5.09372 q 0,0.6563 0.21875,0.9375 0.25,0.2813 0.78125,0.3125 v 3.5625 q -1.0625,0.2188 -1.84375,0.2188 -1.1875,0 -1.84375,-0.5313 -0.625,-0.5312 -0.78125,-1.4062 l -0.0937,-0.9063 q -1.09375,1.4375 -2.65625,2.1875 -1.5625,0.75 -3.34375,0.75 z m 1.1875,-3.0625 q 1.0625,0 2,-0.375 0.96875,-0.375 1.5,-1 0.6875,-0.5312 0.6875,-1.1875 v -1.87497 q -0.75,-0.28125 -1.625,-0.4375 -0.875,-0.1875 -1.6875,-0.1875 -1.625,0 -2.65625,0.75 -1.03125,0.71877 -1.03125,1.84377 0,1.0625 0.8125,1.7812 0.8125,0.6875 2,0.6875 z"
         style=""
         id="path3742" />
      <path
         d="m 404.74428,1006.6915 h -4.1875 v -9.18747 q 0,-1.96875 -0.6875,-2.875 -0.6875,-0.90625 -1.90625,-0.90625 -0.625,0 -1.28125,0.25 -0.65625,0.25 -1.25,0.71875 -0.5625,0.4375 -1.03125,1.0625 -0.46875,0.625 -0.6875,1.375 v 9.56247 h -4.1875 v -16.37497 h 3.78125 v 3.03125 q 0.90625,-1.5625 2.625,-2.4375 1.71875,-0.875 3.875,-0.875 1.53125,0 2.5,0.5625 0.96875,0.5625 1.5,1.46875 0.53125,0.90625 0.71875,2.0625 0.21875,1.15625 0.21875,2.34375 z"
         style=""
         id="path3744" />
      <path
         d="m 412.85414,1007.004 q -1.1875,0 -2.21875,-0.375 -1.03125,-0.4062 -1.78125,-1.0937 -0.75,-0.7188 -1.1875,-1.6563 -0.40625,-0.9375 -0.40625,-2.0625 0,-1.1562 0.5,-2.12497 0.53125,-1 1.4375,-1.6875 0.9375,-0.6875 2.21875,-1.0625 1.28125,-0.40625 2.8125,-0.40625 1.09375,0 2.125,0.1875 1.0625,0.1875 1.875,0.53125 v -0.9375 q 0,-1.625 -0.9375,-2.5 -0.90625,-0.875 -2.71875,-0.875 -1.3125,0 -2.5625,0.46875 -1.25,0.46875 -2.5625,1.375 l -1.28125,-2.65625 q 3.15625,-2.09375 6.8125,-2.09375 3.53125,0 5.46875,1.75 1.96875,1.71875 1.96875,5 v 5.09372 q 0,0.6563 0.21875,0.9375 0.25,0.2813 0.78125,0.3125 v 3.5625 q -1.0625,0.2188 -1.84375,0.2188 -1.1875,0 -1.84375,-0.5313 -0.625,-0.5312 -0.78125,-1.4062 l -0.0937,-0.9063 q -1.09375,1.4375 -2.65625,2.1875 -1.5625,0.75 -3.34375,0.75 z m 1.1875,-3.0625 q 1.0625,0 2,-0.375 0.96875,-0.375 1.5,-1 0.6875,-0.5312 0.6875,-1.1875 v -1.87497 q -0.75,-0.28125 -1.625,-0.4375 -0.875,-0.1875 -1.6875,-0.1875 -1.625,0 -2.65625,0.75 -1.03125,0.71877 -1.03125,1.84377 0,1.0625 0.8125,1.7812 0.8125,0.6875 2,0.6875 z"
         style=""
         id="path3746" />
      <path
         d="m 432.73598,1006.7853 q -1.65625,0 -3,-0.6563 -1.34375,-0.6562 -2.34375,-1.7812 -0.96875,-1.1563 -1.5,-2.6563 -0.53125,-1.5 -0.53125,-3.18747 0,-1.78125 0.5625,-3.3125 0.5625,-1.53125 1.5625,-2.6875 1,-1.15625 2.40625,-1.8125 1.40625,-0.65625 3.09375,-0.65625 1.90625,0 3.34375,0.875 1.4375,0.84375 2.375,2.28125 v -2.875 h 3.65625 v 15.59377 q 0,1.8125 -0.6875,3.25 -0.6875,1.4375 -1.90625,2.4375 -1.1875,1 -2.875,1.5312 -1.65625,0.5313 -3.625,0.5313 -2.6875,0 -4.53125,-0.9063 -1.8125,-0.875 -3.125,-2.5 l 2.28125,-2.2187 q 0.9375,1.1562 2.34375,1.8125 1.4375,0.6562 3.03125,0.6562 0.96875,0 1.84375,-0.2812 0.90625,-0.25 1.59375,-0.8125 0.6875,-0.5625 1.0625,-1.4375 0.40625,-0.875 0.40625,-2.0625 v -2.0625 q -0.8125,1.4062 -2.28125,2.1875 -1.46875,0.75 -3.15625,0.75 z m 1.40625,-3.3438 q 0.6875,0 1.3125,-0.2187 0.625,-0.2188 1.15625,-0.5938 0.53125,-0.375 0.9375,-0.875 0.40625,-0.5 0.625,-1.0625 v -3.90622 q -0.5625,-1.4375 -1.78125,-2.3125 -1.1875,-0.875 -2.5,-0.875 -0.96875,0 -1.75,0.4375 -0.78125,0.40625 -1.34375,1.125 -0.5625,0.6875 -0.875,1.59375 -0.28125,0.90625 -0.28125,1.875 0,1 0.34375,1.87497 0.34375,0.875 0.9375,1.5313 0.625,0.6562 1.4375,1.0312 0.8125,0.375 1.78125,0.375 z"
         style=""
         id="path3748" />
      <path
         d="m 453.7599,1007.004 q -1.96875,0 -3.5625,-0.6562 -1.59375,-0.6875 -2.71875,-1.8438 -1.125,-1.1562 -1.75,-2.6875 -0.59375,-1.5312 -0.59375,-3.21872 0,-1.75 0.59375,-3.28125 0.59375,-1.5625 1.71875,-2.71875 1.125,-1.1875 2.71875,-1.875 1.625,-0.6875 3.625,-0.6875 2,0 3.5625,0.6875 1.59375,0.6875 2.6875,1.84375 1.125,1.15625 1.6875,2.6875 0.59375,1.53125 0.59375,3.1875 0,0.40625 -0.0312,0.78125 0,0.375 -0.0625,0.625 H 449.5724 q 0.0937,0.96872 0.46875,1.71872 0.375,0.75 0.96875,1.2813 0.59375,0.5312 1.34375,0.8125 0.75,0.2812 1.5625,0.2812 1.25,0 2.34375,-0.5937 1.125,-0.625 1.53125,-1.625 l 3.59375,1 q -0.90625,1.875 -2.90625,3.0937 -1.96875,1.1875 -4.71875,1.1875 z m 4.25,-9.87497 q -0.15625,-1.84375 -1.375,-2.9375 -1.1875,-1.125 -2.90625,-1.125 -0.84375,0 -1.59375,0.3125 -0.71875,0.28125 -1.28125,0.8125 -0.5625,0.53125 -0.9375,1.28125 -0.34375,0.75 -0.40625,1.65625 z"
         style=""
         id="path3750" />
      <path
         d="m 474.65395,993.94153 q -1.90625,0.0312 -3.40625,0.75 -1.5,0.6875 -2.15625,2.09375 v 9.90622 h -4.1875 v -16.37497 h 3.84375 v 3.5 q 0.4375,-0.84375 1.03125,-1.5 0.59375,-0.6875 1.28125,-1.1875 0.6875,-0.5 1.375,-0.75 0.71875,-0.28125 1.375,-0.28125 0.34375,0 0.5,0 0.1875,0 0.34375,0.0312 z"
         style=""
         id="path3752" />
    </g>
  </g>
  <g
     style="display:inline"
     id="layer2">
    <path
       id="path4240"
       d="m 260.87189,77.208967 0.12627,66.922603 57.32616,-20.45559 0.25254,-66.038719"
       style="fill:#dbdbe1;fill-opacity:1;fill-rule:evenodd;stroke:none;stroke-width:1px;stroke-linecap:butt;stroke-linejoin:miter;stroke-opacity:1" />
    <path
       id="path4238"
       d="m 202.66185,124.30733 58.46258,19.95051 -0.12627,-67.048873 -57.9575,-18.940361"
       style="fill:#ededf0;fill-opacity:1;fill-rule:evenodd;stroke:none;stroke-width:1px;stroke-linecap:butt;stroke-linejoin:miter;stroke-opacity:1" />
    <path
       id="path4236"
       d="M 203.04066,57.889799 260.8719,76.956428 318.32432,58.521144 262.13459,41.096013 Z"
       style="fill:#f6f6f8;fill-opacity:1;fill-rule:evenodd;stroke:none;stroke-width:1px;stroke-linecap:butt;stroke-linejoin:miter;stroke-opacity:1" />
    <g
       id="g4232">
      <path
         style="fill:none;fill-rule:evenodd;stroke:#6184d8;stroke-width:3;stroke-linecap:butt;stroke-linejoin:miter;stroke-miterlimit:4;stroke-dasharray:3, 3;stroke-dashoffset:0;stroke-opacity:1"
         d="M 203.04066,58.394876 260.8719,76.83016 318.70313,58.647414"
         id="path4216" />
      <path
         style="fill:none;fill-rule:evenodd;stroke:#6184d8;stroke-width:3;stroke-linecap:butt;stroke-linejoin:miter;stroke-miterlimit:4;stroke-dasharray:3, 3;stroke-dashoffset:0;stroke-opacity:1"
         d="m 260.74563,76.577621 0.12627,67.301409"
         id="path4218" />
    </g>
    <path
       id="path4214"
       d="m 260.71429,144.01153 57.32142,-19.82143 0.17858,-66.071431 -56.25001,-16.785714 -58.57142,16.785714 -0.17857,66.428571 z"
       style="fill:none;fill-rule:evenodd;stroke:#4b4b6c;stroke-width:4;stroke-linecap:butt;stroke-linejoin:miter;stroke-miterlimit:4;stroke-dasharray:none;stroke-opacity:1" />
  </g>
</svg>
