<?xml version="1.0" encoding="UTF-8" standalone="no"?>
<svg
   xmlns:dc="http://purl.org/dc/elements/1.1/"
   xmlns:cc="http://creativecommons.org/ns#"
   xmlns:rdf="http://www.w3.org/1999/02/22-rdf-syntax-ns#"
   xmlns:svg="http://www.w3.org/2000/svg"
   xmlns="http://www.w3.org/2000/svg"
   xmlns:sodipodi="http://sodipodi.sourceforge.net/DTD/sodipodi-0.dtd"
   xmlns:inkscape="http://www.inkscape.org/namespaces/inkscape"
   version="1.1"
   id="svg2"
   viewBox="0 0 251.13814 66.009996"
   height="18.629488mm"
   width="70.876762mm"
   sodipodi:docname="wordmark.svg"
   inkscape:version="0.92.1 r15371">
  <metadata
     id="metadata21">
    <rdf:RDF>
      <cc:Work
         rdf:about="">
        <dc:format>image/svg+xml</dc:format>
        <dc:type
           rdf:resource="http://purl.org/dc/dcmitype/StillImage" />
        <dc:title>Deplink Wordmark</dc:title>
      </cc:Work>
    </rdf:RDF>
  </metadata>
  <sodipodi:namedview
     pagecolor="#ffffff"
     bordercolor="#666666"
     borderopacity="1"
     objecttolerance="10"
     gridtolerance="10"
     guidetolerance="10"
     inkscape:pageopacity="0"
     inkscape:pageshadow="2"
     inkscape:window-width="1920"
     inkscape:window-height="1017"
     id="namedview19"
     showgrid="false"
     inkscape:zoom="0.71801597"
     inkscape:cx="-169.10986"
     inkscape:cy="125.97369"
     inkscape:window-x="-8"
     inkscape:window-y="-8"
     inkscape:window-maximized="1"
     inkscape:current-layer="svg2"
     fit-margin-top="0"
     fit-margin-left="0"
     fit-margin-right="0"
     fit-margin-bottom="0" />
  <title
     id="title4244">Deplink Wordmark</title>
  <defs
     id="defs4" />
  <path
     d="m 17.43,51.8 q -3.78,0 -7,-1.47 Q 7.21,48.86 4.9,46.27 2.59,43.68 1.26,40.25 0,36.75 0,32.76 0,28.77 1.19,25.34 2.45,21.91 4.62,19.32 6.79,16.73 9.8,15.26 q 3.01,-1.47 6.58,-1.47 4.06,0 7.28,1.96 3.29,1.96 5.11,5.11 V 0 h 9.38 v 40.32 q 0,1.47 0.49,2.1 0.49,0.63 1.68,0.7 v 7.98 q -2.45,0.49 -3.99,0.49 -2.52,0 -4.13,-1.26 -1.61,-1.26 -1.82,-3.29 l -0.21,-2.31 q -2.03,3.5 -5.53,5.32 -3.43,1.75 -7.21,1.75 z m 2.45,-7.98 q 1.33,0 2.73,-0.42 1.4,-0.49 2.59,-1.33 1.19,-0.84 2.1,-1.96 0.98,-1.12 1.47,-2.45 v -8.75 q -0.56,-1.54 -1.61,-2.8 -0.98,-1.33 -2.31,-2.24 -1.26,-0.98 -2.73,-1.54 -1.4,-0.56 -2.8,-0.56 -2.1,0 -3.92,0.91 -1.75,0.91 -3.01,2.52 -1.26,1.54 -1.96,3.57 -0.7,2.03 -0.7,4.2 0,2.31 0.77,4.27 0.77,1.96 2.1,3.43 1.33,1.47 3.15,2.31 1.89,0.84 4.13,0.84 z"
     style="font-style:normal;font-variant:normal;font-weight:normal;font-stretch:normal;font-size:medium;line-height:125%;font-family:'Roboto Medium';-inkscape-font-specification:'Roboto Medium, Normal';text-align:start;letter-spacing:0px;word-spacing:0px;writing-mode:lr-tb;text-anchor:start;opacity:1;fill:#6184d8;fill-opacity:1;stroke:none;stroke-width:1px;stroke-linecap:butt;stroke-linejoin:miter;stroke-opacity:1"
     id="path3695"
     inkscape:connector-curvature="0" />
  <path
     d="m 64.36719,51.8 q -4.41,0 -7.98,-1.47 -3.57,-1.54 -6.09,-4.13 -2.52,-2.59 -3.92,-6.02 -1.33,-3.43 -1.33,-7.21 0,-3.92 1.33,-7.35 1.33,-3.5 3.85,-6.09 2.52,-2.66 6.09,-4.2 3.64,-1.54 8.12,-1.54 4.48,0 7.98,1.54 3.57,1.54 6.02,4.13 2.52,2.59 3.78,6.02 1.33,3.43 1.33,7.14 0,0.91 -0.07,1.75 0,0.84 -0.14,1.4 h -28.35 q 0.21,2.17 1.05,3.85 0.84,1.68 2.17,2.87 1.33,1.19 3.01,1.82 1.68,0.63 3.5,0.63 2.8,0 5.25,-1.33 2.52,-1.4 3.43,-3.64 l 8.05,2.24 q -2.03,4.2 -6.51,6.93 -4.41,2.66 -10.57,2.66 z m 9.52,-22.12 q -0.35,-4.13 -3.08,-6.58 -2.66,-2.52 -6.51,-2.52 -1.89,0 -3.57,0.7 -1.61,0.63 -2.87,1.82 -1.26,1.19 -2.1,2.87 -0.77,1.68 -0.91,3.71 z"
     style="font-style:normal;font-variant:normal;font-weight:normal;font-stretch:normal;font-size:medium;line-height:125%;font-family:'Roboto Medium';-inkscape-font-specification:'Roboto Medium, Normal';text-align:start;letter-spacing:0px;word-spacing:0px;writing-mode:lr-tb;text-anchor:start;opacity:1;fill:#6184d8;fill-opacity:1;stroke:none;stroke-width:1px;stroke-linecap:butt;stroke-linejoin:miter;stroke-opacity:1"
     id="path3697"
     inkscape:connector-curvature="0" />
  <path
     d="m 111.30985,51.8 q -4.34,0 -7.56,-1.89 -3.22,-1.96 -5.04,-5.25 v 21.35 h -9.38 V 14.42 h 8.19 v 6.3 q 2.03,-3.22 5.25,-5.04 3.22,-1.89 7.42,-1.89 3.71,0 6.86,1.54 3.15,1.47 5.39,4.06 2.31,2.52 3.57,6.02 1.33,3.43 1.33,7.28 0,3.99 -1.19,7.49 -1.19,3.5 -3.36,6.09 -2.1,2.59 -5.04,4.06 -2.94,1.47 -6.44,1.47 z m -3.15,-7.98 q 2.1,0 3.85,-0.91 1.82,-0.91 3.08,-2.45 1.26,-1.54 1.96,-3.57 0.7,-2.03 0.7,-4.2 0,-2.31 -0.77,-4.27 -0.77,-2.03 -2.17,-3.5 -1.33,-1.47 -3.22,-2.31 -1.82,-0.84 -3.99,-0.84 -1.33,0 -2.73,0.49 -1.4,0.42 -2.59,1.26 -1.19,0.84 -2.17,1.96 -0.91,1.12 -1.4,2.45 v 8.61 q 1.26,3.15 3.85,5.25 2.59,2.03 5.6,2.03 z"
     style="font-style:normal;font-variant:normal;font-weight:normal;font-stretch:normal;font-size:medium;line-height:125%;font-family:'Roboto Medium';-inkscape-font-specification:'Roboto Medium, Normal';text-align:start;letter-spacing:0px;word-spacing:0px;writing-mode:lr-tb;text-anchor:start;opacity:1;fill:#6184d8;fill-opacity:1;stroke:none;stroke-width:1px;stroke-linecap:butt;stroke-linejoin:miter;stroke-opacity:1"
     id="path3699"
     inkscape:connector-curvature="0" />
  <path
     d="m 133.69344,0 h 9.38 v 39.34 q 0,2.03 0.98,3.15 0.98,1.12 2.8,1.12 0.84,0 1.82,-0.28 1.05,-0.28 1.96,-0.7 l 1.26,7.14 q -1.89,0.91 -4.41,1.4 -2.52,0.49 -4.55,0.49 -4.41,0 -6.86,-2.31 -2.38,-2.38 -2.38,-6.72 z"
     style="font-style:normal;font-variant:normal;font-weight:bold;font-stretch:normal;font-size:70px;line-height:125%;font-family:Raleway;-inkscape-font-specification:'Raleway Bold';text-align:start;letter-spacing:0px;word-spacing:0px;writing-mode:lr-tb;text-anchor:start;fill:#4b4b6c;fill-opacity:1;stroke:none;stroke-width:1px;stroke-linecap:butt;stroke-linejoin:miter;stroke-opacity:1"
     id="path3701"
     inkscape:connector-curvature="0" />
  <path
     d="M 155.91188,51.1 V 14.42 h 9.38 V 51.1 Z m 0,-41.79 V 0 h 9.38 v 9.31 z"
     style="font-style:normal;font-variant:normal;font-weight:bold;font-stretch:normal;font-size:70px;line-height:125%;font-family:Raleway;-inkscape-font-specification:'Raleway Bold';text-align:start;letter-spacing:0px;word-spacing:0px;writing-mode:lr-tb;text-anchor:start;fill:#4b4b6c;fill-opacity:1;stroke:none;stroke-width:1px;stroke-linecap:butt;stroke-linejoin:miter;stroke-opacity:1"
     id="path3703"
     inkscape:connector-curvature="0" />
  <path
     d="m 207.91203,51.1 h -9.38 V 30.52 q 0,-4.41 -1.54,-6.44 -1.54,-2.03 -4.27,-2.03 -1.4,0 -2.87,0.56 -1.47,0.56 -2.8,1.61 -1.26,0.98 -2.31,2.38 -1.05,1.4 -1.54,3.08 V 51.1 h -9.38 V 14.42 h 8.47 v 6.79 q 2.03,-3.5 5.88,-5.46 3.85,-1.96 8.68,-1.96 3.43,0 5.6,1.26 2.17,1.26 3.36,3.29 1.19,2.03 1.61,4.62 0.49,2.59 0.49,5.25 z"
     style="font-style:normal;font-variant:normal;font-weight:bold;font-stretch:normal;font-size:70px;line-height:125%;font-family:Raleway;-inkscape-font-specification:'Raleway Bold';text-align:start;letter-spacing:0px;word-spacing:0px;writing-mode:lr-tb;text-anchor:start;fill:#4b4b6c;fill-opacity:1;stroke:none;stroke-width:1px;stroke-linecap:butt;stroke-linejoin:miter;stroke-opacity:1"
     id="path3705"
     inkscape:connector-curvature="0" />
  <path
     d="m 241.12813,51.1 -10.64,-15.89 -5.04,4.97 V 51.1 h -9.38 V 0 h 9.38 v 31.01 l 14.7,-16.52 h 10.01 l -13.65,15.54 14.63,21.07 z"
     style="font-style:normal;font-variant:normal;font-weight:bold;font-stretch:normal;font-size:70px;line-height:125%;font-family:Raleway;-inkscape-font-specification:'Raleway Bold';text-align:start;letter-spacing:0px;word-spacing:0px;writing-mode:lr-tb;text-anchor:start;fill:#4b4b6c;fill-opacity:1;stroke:none;stroke-width:1px;stroke-linecap:butt;stroke-linejoin:miter;stroke-opacity:1"
     id="path3707"
     inkscape:connector-curvature="0" />
</svg>
