<?xml version="1.0" encoding="UTF-8" standalone="no"?>
<svg
   xmlns:dc="http://purl.org/dc/elements/1.1/"
   xmlns:cc="http://creativecommons.org/ns#"
   xmlns:rdf="http://www.w3.org/1999/02/22-rdf-syntax-ns#"
   xmlns:svg="http://www.w3.org/2000/svg"
   xmlns="http://www.w3.org/2000/svg"
   xmlns:sodipodi="http://sodipodi.sourceforge.net/DTD/sodipodi-0.dtd"
   xmlns:inkscape="http://www.inkscape.org/namespaces/inkscape"
   width="24"
   height="24"
   viewBox="0 0 24 24"
   fill="none"
   stroke="currentColor"
   stroke-width="2"
   stroke-linecap="round"
   stroke-linejoin="round"
   class="feather feather-package"
   version="1.1"
   id="svg10"
   sodipodi:docname="package.svg"
   inkscape:version="0.92.3 (2405546, 2018-03-11)">
  <metadata
     id="metadata16">
    <rdf:RDF>
      <cc:Work
         rdf:about="">
        <dc:format>image/svg+xml</dc:format>
        <dc:type
           rdf:resource="http://purl.org/dc/dcmitype/StillImage" />
      </cc:Work>
    </rdf:RDF>
  </metadata>
  <defs
     id="defs14" />
  <sodipodi:namedview
     pagecolor="#ffffff"
     bordercolor="#666666"
     borderopacity="1"
     objecttolerance="10"
     gridtolerance="10"
     guidetolerance="10"
     inkscape:pageopacity="0"
     inkscape:pageshadow="2"
     inkscape:window-width="1498"
     inkscape:window-height="846"
     id="namedview12"
     showgrid="false"
     inkscape:zoom="9.8333333"
     inkscape:cx="-21.050847"
     inkscape:cy="12"
     inkscape:window-x="0"
     inkscape:window-y="0"
     inkscape:window-maximized="0"
     inkscape:current-layer="svg10" />
  <path
     d="M12.89 1.45l8 4A2 2 0 0 1 22 7.24v9.53a2 2 0 0 1-1.11 1.79l-8 4a2 2 0 0 1-1.79 0l-8-4a2 2 0 0 1-1.1-1.8V7.24a2 2 0 0 1 1.11-1.79l8-4a2 2 0 0 1 1.78 0z"
     id="path2"
     style="stroke-width:0.8;stroke-miterlimit:4;stroke-dasharray:none;stroke:#2c5aa0" />
  <polyline
     points="2.32 6.16 12 11 21.68 6.16"
     id="polyline4"
     style="stroke-width:0.8;stroke-miterlimit:4;stroke-dasharray:none;stroke:#2c5aa0" />
  <line
     x1="12"
     y1="22.76"
     x2="12"
     y2="11"
     id="line6"
     style="stroke-width:0.8;stroke-miterlimit:4;stroke-dasharray:none;stroke:#2c5aa0" />
  <line
     x1="7"
     y1="3.5"
     x2="17"
     y2="8.5"
     id="line8"
     style="stroke-width:0.8;stroke-miterlimit:4;stroke-dasharray:none;stroke:#2c5aa0" />
</svg>
