<?xml version="1.0" encoding="UTF-8" standalone="no"?>
<svg
   xmlns:dc="http://purl.org/dc/elements/1.1/"
   xmlns:cc="http://creativecommons.org/ns#"
   xmlns:rdf="http://www.w3.org/1999/02/22-rdf-syntax-ns#"
   xmlns:svg="http://www.w3.org/2000/svg"
   xmlns="http://www.w3.org/2000/svg"
   xmlns:sodipodi="http://sodipodi.sourceforge.net/DTD/sodipodi-0.dtd"
   xmlns:inkscape="http://www.inkscape.org/namespaces/inkscape"
   version="1.1"
   id="svg2"
   viewBox="0 0 159.96597 183.52721"
   height="51.79546mm"
   width="45.14595mm"
   sodipodi:docname="iconmark.svg"
   inkscape:version="0.92.1 r15371">
  <metadata
     id="metadata21">
    <rdf:RDF>
      <cc:Work
         rdf:about="">
        <dc:format>image/svg+xml</dc:format>
        <dc:type
           rdf:resource="http://purl.org/dc/dcmitype/StillImage" />
        <dc:title>Deplink Logo</dc:title>
      </cc:Work>
    </rdf:RDF>
  </metadata>
  <sodipodi:namedview
     pagecolor="#ffffff"
     bordercolor="#666666"
     borderopacity="1"
     objecttolerance="10"
     gridtolerance="10"
     guidetolerance="10"
     inkscape:pageopacity="0"
     inkscape:pageshadow="2"
     inkscape:window-width="1920"
     inkscape:window-height="1017"
     id="namedview19"
     showgrid="false"
     inkscape:zoom="4.0617117"
     inkscape:cx="93.945656"
     inkscape:cy="26.545972"
     inkscape:window-x="-8"
     inkscape:window-y="-8"
     inkscape:window-maximized="1"
     inkscape:current-layer="layer1"
     fit-margin-top="0"
     fit-margin-left="0"
     fit-margin-right="0"
     fit-margin-bottom="0" />
  <title
     id="title4244">Deplink Logo</title>
  <defs
     id="defs4" />
  <g
     style="display:inline"
     transform="translate(-179.02321,-719.56415)"
     id="layer1">
    <path
       inkscape:connector-curvature="0"
       id="path3695"
       style="font-style:normal;font-variant:normal;font-weight:normal;font-stretch:normal;font-size:medium;line-height:125%;font-family:'Roboto Medium';-inkscape-font-specification:'Roboto Medium, Normal';text-align:start;letter-spacing:0px;word-spacing:0px;writing-mode:lr-tb;text-anchor:start;opacity:1;fill:#b5b5b5;fill-opacity:1;stroke:none;stroke-width:0.63696402px;stroke-linecap:butt;stroke-linejoin:miter;stroke-opacity:1"
       d="m 190.12549,894.04011 q -2.40772,0 -4.45875,-0.93634 -2.05102,-0.93634 -3.5224,-2.58608 -1.47139,-1.64973 -2.31856,-3.83451 -0.80257,-2.22938 -0.80257,-4.77087 0,-2.54148 0.75799,-4.72627 0.80257,-2.18479 2.18479,-3.83452 1.38221,-1.64974 3.29946,-2.58608 1.91727,-0.93633 4.19123,-0.93633 2.58607,0 4.6371,1.24844 2.09561,1.24845 3.25489,3.25489 v -13.28707 h 5.97472 v 25.68239 q 0,0.93634 0.31211,1.33762 0.31211,0.40129 1.0701,0.44588 v 5.08297 q -1.56056,0.31211 -2.54149,0.31211 -1.60514,0 -2.63066,-0.80257 -1.02551,-0.80257 -1.15927,-2.09561 l -0.13377,-1.47139 q -1.29303,2.22938 -3.5224,3.38865 -2.18479,1.11469 -4.59252,1.11469 z m 1.56057,-5.08297 q 0.84716,0 1.73891,-0.26753 0.89175,-0.31211 1.64974,-0.84716 0.75798,-0.53505 1.33762,-1.24845 0.62422,-0.71341 0.93634,-1.56056 V 879.46 q -0.3567,-0.98092 -1.02552,-1.7835 -0.62422,-0.84716 -1.47139,-1.4268 -0.80257,-0.62422 -1.73891,-0.98092 -0.89175,-0.3567 -1.78349,-0.3567 -1.33763,0 -2.49691,0.57963 -1.11468,0.57964 -1.91726,1.60516 -0.80257,0.98092 -1.24845,2.27396 -0.44587,1.29304 -0.44587,2.67524 0,1.47139 0.49047,2.71984 0.49045,1.24845 1.33762,2.18479 0.84716,0.93633 2.00643,1.47138 1.20387,0.53506 2.63067,0.53506 z" />
    <path
       inkscape:connector-curvature="0"
       id="path3697"
       style="font-style:normal;font-variant:normal;font-weight:normal;font-stretch:normal;font-size:medium;line-height:125%;font-family:'Roboto Medium';-inkscape-font-specification:'Roboto Medium, Normal';text-align:start;letter-spacing:0px;word-spacing:0px;writing-mode:lr-tb;text-anchor:start;opacity:1;fill:#b5b5b5;fill-opacity:1;stroke:none;stroke-width:0.63696402px;stroke-linecap:butt;stroke-linejoin:miter;stroke-opacity:1"
       d="m 220.02279,894.04011 q -2.80901,0 -5.08297,-0.93634 -2.27396,-0.98092 -3.87911,-2.63066 -1.60515,-1.64974 -2.4969,-3.83453 -0.84716,-2.18478 -0.84716,-4.59251 0,-2.49689 0.84716,-4.68168 0.84717,-2.22938 2.45231,-3.87912 1.60516,-1.69432 3.87912,-2.67524 2.31854,-0.98092 5.17214,-0.98092 2.8536,0 5.08297,0.98092 2.27397,0.98092 3.83453,2.63066 1.60514,1.64974 2.40773,3.83453 0.84715,2.18478 0.84715,4.54792 0,0.57964 -0.0446,1.11469 0,0.53505 -0.0892,0.89174 h -18.05793 q 0.13377,1.38222 0.66882,2.45232 0.53505,1.07009 1.3822,1.82808 0.84717,0.75799 1.91726,1.15928 1.07011,0.40129 2.22938,0.40129 1.7835,0 3.34406,-0.84717 1.60516,-0.89175 2.18479,-2.31855 l 5.12756,1.4268 q -1.29304,2.67525 -4.14664,4.41416 -2.80901,1.69433 -6.73271,1.69433 z m 6.0639,-14.08965 q -0.22294,-2.63066 -1.96185,-4.19122 -1.69432,-1.60515 -4.14663,-1.60515 -1.20387,0 -2.27396,0.44587 -1.02552,0.40129 -1.82809,1.15928 -0.80257,0.75799 -1.33762,1.82808 -0.49047,1.07011 -0.57964,2.36314 z" />
    <path
       inkscape:connector-curvature="0"
       id="path3699"
       style="font-style:normal;font-variant:normal;font-weight:normal;font-stretch:normal;font-size:medium;line-height:125%;font-family:'Roboto Medium';-inkscape-font-specification:'Roboto Medium, Normal';text-align:start;letter-spacing:0px;word-spacing:0px;writing-mode:lr-tb;text-anchor:start;opacity:1;fill:#b5b5b5;fill-opacity:1;stroke:none;stroke-width:0.63696402px;stroke-linecap:butt;stroke-linejoin:miter;stroke-opacity:1"
       d="m 249.92358,894.04011 q -2.76443,0 -4.81545,-1.20387 -2.05102,-1.24844 -3.2103,-3.34405 v 13.59917 h -5.97472 v -32.86097 h 5.21673 v 4.01287 q 1.29304,-2.05102 3.34407,-3.2103 2.05102,-1.20385 4.72627,-1.20385 2.36314,0 4.36958,0.98092 2.00643,0.93634 3.43323,2.58607 1.47139,1.60515 2.27396,3.83452 0.84717,2.18479 0.84717,4.6371 0,2.54149 -0.75799,4.77086 -0.75799,2.22938 -2.1402,3.87911 -1.33763,1.64974 -3.2103,2.58608 -1.87267,0.93634 -4.10205,0.93634 z m -2.00644,-5.08297 q 1.33763,0 2.45231,-0.57964 1.15928,-0.57964 1.96186,-1.56057 0.80257,-0.98092 1.24845,-2.27396 0.44587,-1.29304 0.44587,-2.67525 0,-1.47138 -0.49047,-2.71983 -0.49045,-1.29304 -1.3822,-2.22937 -0.84717,-0.93634 -2.05103,-1.47139 -1.15927,-0.53505 -2.54149,-0.53505 -0.84716,0 -1.73891,0.31211 -0.89175,0.26752 -1.64974,0.80258 -0.75799,0.53505 -1.38221,1.24845 -0.57963,0.71339 -0.89175,1.56056 v 5.48425 q 0.80258,2.00644 2.45231,3.34407 1.64974,1.29304 3.567,1.29304 z" />
    <path
       inkscape:connector-curvature="0"
       id="path3701"
       style="font-style:normal;font-variant:normal;font-weight:bold;font-stretch:normal;font-size:70px;line-height:125%;font-family:Raleway;-inkscape-font-specification:'Raleway Bold';text-align:start;letter-spacing:0px;word-spacing:0px;writing-mode:lr-tb;text-anchor:start;fill:#eaebed;fill-opacity:1;stroke:none;stroke-width:0.63696402px;stroke-linecap:butt;stroke-linejoin:miter;stroke-opacity:1"
       d="m 264.18112,861.04537 h 5.97473 v 25.05817 q 0,1.29303 0.62422,2.00643 0.62422,0.7134 1.7835,0.7134 0.53505,0 1.15928,-0.17835 0.6688,-0.17835 1.24844,-0.44587 l 0.80258,4.54792 q -1.20387,0.57964 -2.80901,0.89175 -1.60515,0.31211 -2.89819,0.31211 -2.80901,0 -4.36957,-1.47138 -1.51598,-1.51598 -1.51598,-4.2804 z" />
    <path
       inkscape:connector-curvature="0"
       id="path3703"
       style="font-style:normal;font-variant:normal;font-weight:bold;font-stretch:normal;font-size:70px;line-height:125%;font-family:Raleway;-inkscape-font-specification:'Raleway Bold';text-align:start;letter-spacing:0px;word-spacing:0px;writing-mode:lr-tb;text-anchor:start;fill:#eaebed;fill-opacity:1;stroke:none;stroke-width:0.63696402px;stroke-linecap:butt;stroke-linejoin:miter;stroke-opacity:1"
       d="m 278.33347,893.59423 v -23.36384 h 5.97473 v 23.36384 z m 0,-26.61872 v -5.93014 h 5.97473 v 5.93014 z" />
    <path
       inkscape:connector-curvature="0"
       id="path3705"
       style="font-style:normal;font-variant:normal;font-weight:bold;font-stretch:normal;font-size:70px;line-height:125%;font-family:Raleway;-inkscape-font-specification:'Raleway Bold';text-align:start;letter-spacing:0px;word-spacing:0px;writing-mode:lr-tb;text-anchor:start;fill:#eaebed;fill-opacity:1;stroke:none;stroke-width:0.63696402px;stroke-linecap:butt;stroke-linejoin:miter;stroke-opacity:1"
       d="m 311.45569,893.59423 h -5.97472 v -13.10871 q 0,-2.80902 -0.98092,-4.10205 -0.98093,-1.29304 -2.71984,-1.29304 -0.89175,0 -1.82809,0.3567 -0.93633,0.3567 -1.7835,1.02551 -0.80257,0.62423 -1.47138,1.51597 -0.66881,0.89175 -0.98093,1.96185 v 13.64377 h -5.97472 v -23.36384 h 5.39508 v 4.32499 q 1.29304,-2.22938 3.74535,-3.47783 2.45231,-1.24844 5.52886,-1.24844 2.18478,0 3.56699,0.80257 1.38221,0.80257 2.1402,2.09561 0.75799,1.29304 1.02552,2.94277 0.3121,1.64974 0.3121,3.34407 z" />
    <path
       inkscape:connector-curvature="0"
       id="path3707"
       style="font-style:normal;font-variant:normal;font-weight:bold;font-stretch:normal;font-size:70px;line-height:125%;font-family:Raleway;-inkscape-font-specification:'Raleway Bold';text-align:start;letter-spacing:0px;word-spacing:0px;writing-mode:lr-tb;text-anchor:start;fill:#eaebed;fill-opacity:1;stroke:none;stroke-width:0.63696402px;stroke-linecap:butt;stroke-linejoin:miter;stroke-opacity:1"
       d="m 332.61316,893.59423 -6.77731,-10.12135 -3.21029,3.1657 v 6.95565 h -5.97473 v -32.54886 h 5.97473 v 19.75225 l 9.36337,-10.52264 h 6.37601 l -8.69456,9.89842 9.31879,13.42083 z" />
  </g>
  <g
     style="display:inline"
     id="layer2"
     transform="translate(-179.02321,-39.249191)">
    <path
       id="path4240"
       d="m 260.87189,77.208967 0.12627,66.922603 57.32616,-20.45559 0.25254,-66.038719"
       style="fill:#dbdbe1;fill-opacity:1;fill-rule:evenodd;stroke:none;stroke-width:1px;stroke-linecap:butt;stroke-linejoin:miter;stroke-opacity:1"
       inkscape:connector-curvature="0" />
    <path
       id="path4238"
       d="m 202.66185,124.30733 58.46258,19.95051 -0.12627,-67.048873 -57.9575,-18.940361"
       style="fill:#ededf0;fill-opacity:1;fill-rule:evenodd;stroke:none;stroke-width:1px;stroke-linecap:butt;stroke-linejoin:miter;stroke-opacity:1"
       inkscape:connector-curvature="0" />
    <path
       id="path4236"
       d="M 203.04066,57.889799 260.8719,76.956428 318.32432,58.521144 262.13459,41.096013 Z"
       style="fill:#f6f6f8;fill-opacity:1;fill-rule:evenodd;stroke:none;stroke-width:1px;stroke-linecap:butt;stroke-linejoin:miter;stroke-opacity:1"
       inkscape:connector-curvature="0" />
    <g
       id="g4232">
      <path
         style="fill:none;fill-rule:evenodd;stroke:#6184d8;stroke-width:3;stroke-linecap:butt;stroke-linejoin:miter;stroke-miterlimit:4;stroke-dasharray:3, 3;stroke-dashoffset:0;stroke-opacity:1"
         d="M 203.04066,58.394876 260.8719,76.83016 318.70313,58.647414"
         id="path4216"
         inkscape:connector-curvature="0" />
      <path
         style="fill:none;fill-rule:evenodd;stroke:#6184d8;stroke-width:3;stroke-linecap:butt;stroke-linejoin:miter;stroke-miterlimit:4;stroke-dasharray:3, 3;stroke-dashoffset:0;stroke-opacity:1"
         d="m 260.74563,76.577621 0.12627,67.301409"
         id="path4218"
         inkscape:connector-curvature="0" />
    </g>
    <path
       id="path4214"
       d="m 260.71429,144.01153 57.32142,-19.82143 0.17858,-66.071431 -56.25001,-16.785714 -58.57142,16.785714 -0.17857,66.428571 z"
       style="fill:none;fill-rule:evenodd;stroke:#4b4b6c;stroke-width:4;stroke-linecap:butt;stroke-linejoin:miter;stroke-miterlimit:4;stroke-dasharray:none;stroke-opacity:1"
       inkscape:connector-curvature="0" />
  </g>
</svg>
